# xmcd CD database file
#
# Track frame offsets:
#	150
#	20402
#	56977
#	97475
#	134094
#	153802
#	175214
#	194939
#	212733
#	229084
#	250358
#	280203
#	312902
#
# Disc length: 4778 seconds
#
# Revision: 1
# Processed by: cddbd v1.4PL0 Copyright (c) Steve Scherf et al.
# Submitted via: CDex 1.50Beta7
#
DISCID=cd12a80d
DTITLE=Monk E - From the Center
DYEAR=1900
DGENRE=New Age
TTITLE0=Chuen
TTITLE1=Eb
TTITLE2=Ben
TTITLE3=lx
TTITLE4=Men
TTITLE5=Cib
TTITLE6=Caban
TTITLE7=Etznzb
TTITLE8=Cauac
TTITLE9=Ahau
TTITLE10=lmix
TTITLE11=lx
TTITLE12=Akbal
EXTD=
EXTT0=
EXTT1=
EXTT2=
EXTT3=
EXTT4=
EXTT5=
EXTT6=
EXTT7=
EXTT8=
EXTT9=
EXTT10=
EXTT11=
EXTT12=
PLAYORDER=
